<?xml version="1.0" standalone="no"?>
<!DOCTYPE svg PUBLIC "-//W3C//DTD SVG 20010904//EN"
 "http://www.w3.org/TR/2001/REC-SVG-20010904/DTD/svg10.dtd">
<svg version="1.0" xmlns="http://www.w3.org/2000/svg"
 width="1006.000000pt" height="1006.000000pt" viewBox="0 0 1006.000000 1006.000000"
 preserveAspectRatio="xMidYMid meet">
<metadata>
Created by potrace 1.14, written by Peter Selinger 2001-2017
</metadata>
<g transform="translate(0.000000,1006.000000) scale(0.100000,-0.100000)"
fill="#000000" stroke="none">
<path d="M4769 10056 c-2 -2 -51 -7 -109 -10 -58 -4 -121 -9 -140 -11 -19 -2
-57 -7 -85 -11 -27 -3 -61 -7 -75 -9 -14 -1 -44 -6 -68 -10 -23 -4 -52 -8 -65
-10 -12 -1 -38 -5 -57 -9 -19 -3 -46 -8 -60 -10 -14 -2 -79 -16 -145 -31 -149
-32 -141 -30 -195 -45 -25 -7 -52 -14 -60 -16 -25 -5 -141 -41 -230 -70 -47
-15 -87 -28 -90 -29 -3 0 -18 -5 -35 -12 -16 -6 -75 -28 -130 -49 -55 -20
-128 -50 -163 -66 -34 -15 -65 -28 -67 -28 -3 0 -32 -13 -65 -29 -33 -16 -60
-26 -60 -23 0 4 -4 2 -8 -3 -4 -6 -50 -32 -102 -58 -95 -47 -206 -107 -267
-143 -17 -11 -57 -34 -90 -53 -32 -18 -60 -37 -63 -41 -3 -3 -21 -15 -40 -26
-19 -10 -37 -22 -40 -25 -3 -3 -36 -26 -75 -51 -38 -25 -81 -55 -94 -67 -13
-12 -27 -21 -30 -21 -3 0 -18 -10 -33 -23 -14 -12 -36 -29 -48 -37 -12 -8 -28
-19 -34 -25 -6 -5 -34 -28 -61 -49 -28 -22 -54 -44 -60 -51 -5 -6 -20 -18 -32
-26 -60 -41 -506 -469 -489 -469 2 0 -15 -20 -37 -44 -23 -24 -54 -59 -69 -78
-15 -18 -39 -46 -53 -63 -15 -16 -80 -102 -146 -190 -65 -88 -123 -165 -129
-172 -5 -7 -10 -15 -10 -18 0 -3 -15 -27 -33 -53 -67 -96 -199 -322 -262 -447
-16 -33 -34 -63 -38 -66 -5 -3 -8 -9 -8 -13 1 -3 -10 -29 -24 -58 -14 -28 -25
-57 -25 -64 0 -6 -7 -17 -15 -24 -9 -7 -13 -15 -11 -18 3 -2 -1 -14 -9 -26 -8
-11 -15 -28 -15 -38 0 -10 -4 -18 -10 -18 -5 0 -10 -11 -10 -24 0 -13 -7 -29
-15 -36 -8 -7 -15 -18 -15 -25 0 -7 -8 -30 -17 -51 -9 -22 -18 -43 -19 -49 -2
-5 -32 -94 -67 -196 -54 -157 -79 -237 -101 -329 -2 -8 -11 -42 -19 -75 -9
-33 -18 -71 -21 -85 -3 -14 -12 -55 -20 -91 -8 -36 -17 -81 -20 -100 -3 -19
-8 -45 -10 -59 -3 -14 -7 -42 -10 -62 -3 -21 -9 -55 -12 -75 -3 -21 -7 -49
-10 -63 -2 -14 -6 -52 -10 -85 -3 -33 -7 -70 -9 -83 -20 -124 -27 -669 -12
-867 14 -176 25 -271 54 -445 8 -52 17 -108 19 -124 2 -16 8 -45 14 -65 5 -20
11 -49 14 -66 36 -206 187 -676 306 -950 23 -52 194 -399 210 -425 5 -8 37
-62 71 -120 62 -104 187 -300 198 -310 3 -3 22 -29 41 -57 19 -29 38 -53 43
-53 4 0 7 -5 7 -10 0 -11 144 -197 166 -216 8 -6 14 -14 14 -18 0 -4 10 -17
23 -30 12 -13 47 -52 77 -87 71 -83 337 -348 419 -419 35 -30 69 -60 75 -65 9
-9 146 -121 181 -148 100 -79 370 -267 385 -267 5 0 10 -3 10 -8 0 -4 9 -12
20 -17 10 -6 90 -51 177 -101 126 -73 399 -214 423 -220 8 -1 56 -22 113 -47
29 -13 79 -34 112 -46 33 -13 69 -27 80 -32 11 -5 94 -33 185 -63 144 -47 210
-67 270 -82 8 -2 49 -12 90 -23 41 -11 86 -22 100 -25 109 -23 231 -47 260
-52 19 -3 46 -7 60 -10 14 -2 43 -6 65 -9 22 -3 50 -7 62 -9 12 -3 53 -8 90
-11 37 -4 76 -9 87 -11 137 -26 822 -25 1001 1 17 3 51 7 78 10 82 9 141 16
167 21 14 2 53 9 87 14 120 20 269 52 398 86 71 19 141 37 155 40 42 9 363
116 393 131 16 8 36 16 45 18 82 19 485 213 707 340 33 19 70 40 83 47 12 6
22 15 22 20 0 4 5 8 10 8 35 0 489 328 616 445 6 5 32 28 59 50 111 93 478
468 468 479 -3 3 1 6 10 6 10 0 17 5 17 11 0 6 6 16 13 23 6 7 26 30 42 51 17
20 35 42 40 49 27 30 153 196 180 236 16 25 32 47 35 50 14 12 90 131 90 139
0 5 4 11 8 13 9 3 116 178 147 238 10 19 21 37 24 40 8 6 179 352 206 415 77
181 116 286 171 452 35 106 66 203 68 215 3 13 14 57 26 98 11 41 22 87 25
102 3 16 12 58 21 95 9 38 18 79 20 93 2 14 7 41 11 60 3 19 7 42 9 50 10 56
14 80 19 120 3 25 8 57 10 71 3 14 8 52 11 85 3 32 8 73 9 89 15 136 20 259
19 505 0 265 -5 368 -19 495 -25 208 -35 287 -40 295 -1 3 -6 27 -9 53 -4 26
-11 71 -17 100 -6 29 -12 63 -15 77 -2 14 -6 34 -9 45 -2 11 -5 23 -5 27 -1 6
-60 229 -86 323 -3 11 -6 25 -8 30 -6 24 -78 242 -87 260 -5 11 -20 52 -35 90
-62 169 -237 546 -255 553 -5 2 -9 12 -9 22 0 10 -5 22 -10 25 -6 4 -18 24
-27 46 -8 21 -19 39 -24 39 -5 0 -9 4 -9 9 0 14 -39 79 -142 239 -38 58 -68
108 -68 112 0 4 -7 10 -15 14 -8 3 -15 10 -15 16 0 5 -16 31 -36 57 -20 27
-45 61 -57 77 -12 16 -28 35 -34 42 -7 7 -13 17 -13 22 0 6 -3 12 -8 14 -4 2
-23 23 -42 48 -19 25 -45 56 -57 70 -12 14 -31 36 -43 50 -87 102 -145 165
-286 305 -89 88 -183 178 -208 200 -26 22 -57 49 -70 60 -13 11 -40 35 -62 53
-21 19 -90 73 -154 120 -63 48 -116 90 -118 94 -2 5 -10 8 -17 8 -7 0 -15 3
-17 8 -4 9 -65 52 -75 52 -4 1 -24 14 -43 30 -19 17 -40 30 -46 30 -7 0 -14 4
-16 8 -3 9 -178 117 -283 174 -147 80 -477 238 -499 238 -6 0 -16 4 -22 8 -12
12 -137 59 -157 60 -4 0 -18 7 -30 15 -12 7 -33 17 -47 20 -14 3 -52 15 -85
27 -145 51 -497 145 -625 166 -14 3 -36 7 -50 9 -14 3 -42 8 -62 10 -21 3 -57
9 -80 14 -24 5 -72 12 -108 16 -36 4 -72 9 -81 10 -9 2 -52 6 -95 10 -44 4
-92 9 -109 11 -34 6 -641 15 -646 10z"/>
</g>
</svg>
